<?xml version="1.0" encoding="UTF-8" standalone="no"?>
<!-- Created with Inkscape (http://www.inkscape.org/) -->

<svg
   xmlns:dc="http://purl.org/dc/elements/1.1/"
   xmlns:cc="http://creativecommons.org/ns#"
   xmlns:rdf="http://www.w3.org/1999/02/22-rdf-syntax-ns#"
   xmlns:svg="http://www.w3.org/2000/svg"
   xmlns="http://www.w3.org/2000/svg"
   xmlns:sodipodi="http://sodipodi.sourceforge.net/DTD/sodipodi-0.dtd"
   xmlns:inkscape="http://www.inkscape.org/namespaces/inkscape"
   width="100"
   height="100"
   viewBox="0 0 26.458333 26.458334"
   version="1.1"
   id="svg3585"
   inkscape:version="0.92.3 (2405546, 2018-03-11)"
   sodipodi:docname="01n.svg">
  <defs
     id="defs3579" />
  <sodipodi:namedview
     id="base"
     pagecolor="#ffffff"
     bordercolor="#666666"
     borderopacity="1.0"
     inkscape:pageopacity="0.0"
     inkscape:pageshadow="2"
     inkscape:zoom="5.6"
     inkscape:cx="54.433945"
     inkscape:cy="59.297636"
     inkscape:document-units="px"
     inkscape:current-layer="layer1"
     showgrid="false"
     units="px"
     inkscape:window-width="1278"
     inkscape:window-height="1008"
     inkscape:window-x="1913"
     inkscape:window-y="112"
     inkscape:window-maximized="0" />
  <metadata
     id="metadata3582">
    <rdf:RDF>
      <cc:Work
         rdf:about="">
        <dc:format>image/svg+xml</dc:format>
        <dc:type
           rdf:resource="http://purl.org/dc/dcmitype/StillImage" />
        <dc:title />
      </cc:Work>
    </rdf:RDF>
  </metadata>
  <g
     inkscape:label="Layer 1"
     inkscape:groupmode="layer"
     id="layer1"
     transform="translate(0,-270.54165)">
    <g
       id="g927"
       transform="matrix(0.56366665,0,0,0.56366665,-13.82586,256.71512)"
       style="opacity:1;fill:#000000">
      <g
         display="none"
         id="Base-3"
         style="display:none;fill:#000000" />
      <g
         id="Dibujo-2"
         style="fill:#000000">
        <path
           id="path913"
           d="m 60,46 c -5.514,0 -10,-4.486 -10,-10 0,-1.104 -0.896,-2 -2,-2 -7.72,0 -14,6.28 -14,14 0,7.72 6.28,14 14,14 7.72,0 14,-6.28 14,-14 0,-1.104 -0.896,-2 -2,-2 z M 48,58 c -5.514,0 -10,-4.486 -10,-10 0,-4.888 3.525,-8.969 8.168,-9.832 0.934,5.986 5.677,10.729 11.664,11.664 C 56.969,54.475 52.889,58 48,58 Z"
           inkscape:connector-curvature="0"
           style="fill:#000000" />
      </g>
    </g>
  </g>
</svg>
