<?xml version="1.0" encoding="UTF-8" standalone="no"?>
<!-- Created with Inkscape (http://www.inkscape.org/) -->

<svg
   xmlns:dc="http://purl.org/dc/elements/1.1/"
   xmlns:cc="http://creativecommons.org/ns#"
   xmlns:rdf="http://www.w3.org/1999/02/22-rdf-syntax-ns#"
   xmlns:svg="http://www.w3.org/2000/svg"
   xmlns="http://www.w3.org/2000/svg"
   xmlns:sodipodi="http://sodipodi.sourceforge.net/DTD/sodipodi-0.dtd"
   xmlns:inkscape="http://www.inkscape.org/namespaces/inkscape"
   width="100"
   height="100"
   viewBox="0 0 26.458333 26.458333"
   version="1.1"
   id="svg4182"
   inkscape:version="0.92.3 (2405546, 2018-03-11)"
   sodipodi:docname="02d.svg">
  <defs
     id="defs4176" />
  <sodipodi:namedview
     id="base"
     pagecolor="#ffffff"
     bordercolor="#666666"
     borderopacity="1.0"
     inkscape:pageopacity="0.0"
     inkscape:pageshadow="2"
     inkscape:zoom="2.8284271"
     inkscape:cx="50.702917"
     inkscape:cy="58.152225"
     inkscape:document-units="px"
     inkscape:current-layer="layer1"
     showgrid="false"
     units="px"
     inkscape:window-width="2560"
     inkscape:window-height="1017"
     inkscape:window-x="1912"
     inkscape:window-y="104"
     inkscape:window-maximized="1" />
  <metadata
     id="metadata4179">
    <rdf:RDF>
      <cc:Work
         rdf:about="">
        <dc:format>image/svg+xml</dc:format>
        <dc:type
           rdf:resource="http://purl.org/dc/dcmitype/StillImage" />
        <dc:title></dc:title>
      </cc:Work>
    </rdf:RDF>
  </metadata>
  <g
     inkscape:label="Layer 1"
     inkscape:groupmode="layer"
     id="layer1"
     transform="translate(0,-270.54167)">
    <g
       id="g1149"
       transform="matrix(0.39539607,0,0,0.39539607,-7.5293249,269.53658)">
      <g
         display="none"
         id="Base-0"
         style="display:none" />
      <g
         id="Dibujo-78">
        <g
           id="g1130">
          <path
             id="path1120"
             d="M 72.556,42.187 C 73.501,40.271 74,38.166 74,36 74,28.28 67.72,22 60,22 55.399,22 51.105,24.281 48.504,28.021 48.336,28.016 48.17,28 48.001,28 40.337,28 33.782,33.012 31.69,40.184 31.113,40.079 30.508,40 30.001,40 c -6.066,0 -11,4.935 -11,11 0,6.065 4.934,11 11,11 h 36 c 6.065,0 11,-4.935 11,-11 0,-3.608 -1.754,-6.806 -4.445,-8.813 z M 60,26 c 5.514,0 10,4.486 10,10 0,1.548 -0.36,3.05 -1.036,4.417 C 68.019,40.152 67.028,40 66.001,40 65.493,40 64.889,40.079 64.311,40.184 62.703,34.673 58.457,30.449 53.101,28.783 54.939,27.03 57.397,26 60,26 Z m 6.001,32 h -36 c -3.859,0 -7,-3.141 -7,-7 0,-3.859 3.141,-7 7,-7 0.277,0 0.723,0.068 1.193,0.162 V 46 c 0,1.104 0.896,2 2,2 1.104,0 2,-0.896 2,-2 V 42.781 C 36.267,36.528 41.63,32 48.001,32 c 6.372,0 11.736,4.53 12.807,10.786 V 46 c 0,1.104 0.896,2 2,2 1.104,0 2,-0.896 2,-2 V 44.163 C 65.279,44.069 65.727,44 66.001,44 c 3.859,0 7,3.141 7,7 0,3.859 -3.141,7 -7,7 z"
             inkscape:connector-curvature="0" />
          <path
             id="path1122"
             d="m 60,18 c 1.104,0 2,-0.896 2,-2 v -4 c 0,-1.104 -0.896,-2 -2,-2 -1.105,0 -2,0.896 -2,2 v 4 c 0,1.104 0.895,2 2,2 z"
             inkscape:connector-curvature="0" />
          <path
             id="path1124"
             d="m 84,34 h -4 c -1.105,0 -2,0.896 -2,2 0,1.104 0.895,2 2,2 h 4 c 1.104,0 2,-0.896 2,-2 0,-1.104 -0.896,-2 -2,-2 z"
             inkscape:connector-curvature="0" />
          <path
             id="path1126"
             d="m 74.143,23.857 c 0.512,0 1.023,-0.195 1.414,-0.586 l 2.828,-2.828 c 0.781,-0.781 0.781,-2.047 0,-2.828 -0.781,-0.781 -2.047,-0.781 -2.828,0 l -2.828,2.828 c -0.781,0.781 -0.781,2.047 0,2.828 0.39,0.391 0.902,0.586 1.414,0.586 z"
             inkscape:connector-curvature="0" />
          <path
             id="path1128"
             d="m 44.443,23.271 c 0.391,0.391 0.902,0.586 1.414,0.586 0.512,0 1.023,-0.195 1.414,-0.586 0.781,-0.781 0.781,-2.047 0,-2.828 l -2.828,-2.828 c -0.781,-0.781 -2.047,-0.781 -2.828,0 -0.781,0.781 -0.781,2.047 0,2.828 z"
             inkscape:connector-curvature="0" />
        </g>
      </g>
    </g>
  </g>
</svg>
