<?xml version="1.0" encoding="UTF-8" standalone="no"?>
<!-- Created with Inkscape (http://www.inkscape.org/) -->

<svg
   xmlns:dc="http://purl.org/dc/elements/1.1/"
   xmlns:cc="http://creativecommons.org/ns#"
   xmlns:rdf="http://www.w3.org/1999/02/22-rdf-syntax-ns#"
   xmlns:svg="http://www.w3.org/2000/svg"
   xmlns="http://www.w3.org/2000/svg"
   xmlns:sodipodi="http://sodipodi.sourceforge.net/DTD/sodipodi-0.dtd"
   xmlns:inkscape="http://www.inkscape.org/namespaces/inkscape"
   width="100"
   height="100"
   viewBox="0 0 26.458333 26.458334"
   version="1.1"
   id="svg5368"
   inkscape:version="0.92.3 (2405546, 2018-03-11)"
   sodipodi:docname="03d.svg">
  <defs
     id="defs5362" />
  <sodipodi:namedview
     id="base"
     pagecolor="#ffffff"
     bordercolor="#666666"
     borderopacity="1.0"
     inkscape:pageopacity="0.0"
     inkscape:pageshadow="2"
     inkscape:zoom="4"
     inkscape:cx="92.556"
     inkscape:cy="73.659675"
     inkscape:document-units="mm"
     inkscape:current-layer="layer1"
     showgrid="false"
     units="px"
     inkscape:window-width="2560"
     inkscape:window-height="1017"
     inkscape:window-x="1912"
     inkscape:window-y="104"
     inkscape:window-maximized="1" />
  <metadata
     id="metadata5365">
    <rdf:RDF>
      <cc:Work
         rdf:about="">
        <dc:format>image/svg+xml</dc:format>
        <dc:type
           rdf:resource="http://purl.org/dc/dcmitype/StillImage" />
        <dc:title></dc:title>
      </cc:Work>
    </rdf:RDF>
  </metadata>
  <g
     inkscape:label="Layer 1"
     inkscape:groupmode="layer"
     id="layer1"
     transform="translate(0,-270.54165)">
    <g
       id="g1117"
       transform="matrix(0.45617816,0,0,0.45617816,-8.6669592,263.2428)">
      <g
         display="none"
         id="Base-34"
         style="display:none" />
      <g
         id="Dibujo-85">
        <g
           id="g1102">
          <path
             id="path1100"
             d="m 66,40 c -0.507,0 -1.112,0.079 -1.688,0.184 C 62.218,33.012 55.663,28 48,28 40.336,28 33.782,33.012 31.688,40.184 31.112,40.079 30.507,40 30,40 c -6.065,0 -11,4.935 -11,11 0,6.065 4.935,11 11,11 H 66 C 72.065,62 77,57.065 77,51 77,44.935 72.065,40 66,40 Z m 0,18 H 30 c -3.86,0 -7,-3.141 -7,-7 0,-3.859 3.14,-7 7,-7 0.277,0 0.723,0.068 1.194,0.162 V 46 c 0,1.104 0.896,2 2,2 1.104,0 2,-0.896 2,-2 V 42.774 C 36.27,36.524 41.632,32 48,32 c 6.371,0 11.735,4.529 12.808,10.784 V 46 c 0,1.104 0.896,2 2,2 1.105,0 2,-0.896 2,-2 V 44.163 C 65.278,44.069 65.726,44 66,44 c 3.859,0 7,3.141 7,7 0,3.859 -3.141,7 -7,7 z"
             inkscape:connector-curvature="0" />
        </g>
      </g>
    </g>
  </g>
</svg>
