<?xml version="1.0" encoding="UTF-8" standalone="no"?>
<!-- Created with Inkscape (http://www.inkscape.org/) -->

<svg
   xmlns:dc="http://purl.org/dc/elements/1.1/"
   xmlns:cc="http://creativecommons.org/ns#"
   xmlns:rdf="http://www.w3.org/1999/02/22-rdf-syntax-ns#"
   xmlns:svg="http://www.w3.org/2000/svg"
   xmlns="http://www.w3.org/2000/svg"
   xmlns:sodipodi="http://sodipodi.sourceforge.net/DTD/sodipodi-0.dtd"
   xmlns:inkscape="http://www.inkscape.org/namespaces/inkscape"
   width="100"
   height="100"
   viewBox="0 0 26.458333 26.458334"
   version="1.1"
   id="svg8892"
   inkscape:version="0.92.3 (2405546, 2018-03-11)"
   sodipodi:docname="10n.svg">
  <defs
     id="defs8886" />
  <sodipodi:namedview
     id="base"
     pagecolor="#ffffff"
     bordercolor="#666666"
     borderopacity="1.0"
     inkscape:pageopacity="0.0"
     inkscape:pageshadow="2"
     inkscape:zoom="5.6"
     inkscape:cx="27.49196"
     inkscape:cy="42.100804"
     inkscape:document-units="mm"
     inkscape:current-layer="layer1"
     showgrid="false"
     units="px"
     inkscape:window-width="2560"
     inkscape:window-height="1017"
     inkscape:window-x="1912"
     inkscape:window-y="104"
     inkscape:window-maximized="1" />
  <metadata
     id="metadata8889">
    <rdf:RDF>
      <cc:Work
         rdf:about="">
        <dc:format>image/svg+xml</dc:format>
        <dc:type
           rdf:resource="http://purl.org/dc/dcmitype/StillImage" />
        <dc:title></dc:title>
      </cc:Work>
    </rdf:RDF>
  </metadata>
  <g
     inkscape:label="Layer 1"
     inkscape:groupmode="layer"
     id="layer1"
     transform="translate(0,-270.54165)">
    <g
       id="g1854"
       transform="matrix(0.41444264,0,0,0.41444264,-6.6640801,263.90098)">
      <g
         display="none"
         id="Base-82"
         style="display:none" />
      <g
         id="Dibujo-522">
        <g
           id="g1836">
          <path
             id="path1828"
             d="M 69.24,40.488 C 72.173,37.886 74,34.094 74,30 74,28.896 73.104,28 72,28 66.486,28 62,23.514 62,18 62,16.896 61.104,16 60,16 52.922,16 47.069,21.284 46.143,28.111 39.295,28.848 33.61,33.599 31.689,40.183 31.112,40.079 30.507,40 30,40 c -6.065,0 -11,4.935 -11,11 0,6.065 4.935,11 11,11 1.104,0 2,-0.896 2,-2 0,-1.104 -0.896,-2 -2,-2 -3.859,0 -7,-3.141 -7,-7 0,-3.859 3.141,-7 7,-7 0.277,0 0.723,0.068 1.193,0.162 V 46 c 0,1.104 0.895,2 2,2 1.105,0 2,-0.896 2,-2 V 42.781 C 36.266,36.528 41.629,32 48,32 c 6.37,0 11.733,4.528 12.807,10.782 V 46 c 0,1.104 0.896,2 2,2 1.104,0 2,-0.896 2,-2 V 44.162 C 65.277,44.068 65.723,44 66,44 c 3.859,0 7,3.141 7,7 0,3.859 -3.141,7 -7,7 -1.105,0 -2,0.896 -2,2 0,1.104 0.895,2 2,2 6.065,0 11,-4.935 11,-11 0,-4.938 -3.272,-9.125 -7.76,-10.512 z M 50.174,28.15 c 0.759,-4.039 3.952,-7.23 7.994,-7.982 0.934,5.985 5.675,10.728 11.66,11.664 -0.615,3.246 -2.84,6.006 -5.862,7.326 C 61.811,33.21 56.519,28.952 50.174,28.15 Z"
             inkscape:connector-curvature="0" />
          <path
             id="path1830"
             d="m 49.485,52.06 c -1.067,-0.268 -2.157,0.384 -2.426,1.455 l -6,24 c -0.268,1.072 0.384,2.158 1.455,2.426 0.163,0.041 0.326,0.06 0.487,0.06 0.895,0 1.711,-0.606 1.938,-1.515 l 6,-24 c 0.269,-1.073 -0.382,-2.159 -1.454,-2.426 z"
             inkscape:connector-curvature="0" />
          <path
             id="path1832"
             d="m 57.485,58.06 c -1.069,-0.267 -2.157,0.384 -2.426,1.455 l -3,12 c -0.268,1.072 0.384,2.158 1.455,2.426 0.163,0.041 0.326,0.06 0.487,0.06 0.895,0 1.711,-0.606 1.938,-1.515 l 3,-12 c 0.269,-1.073 -0.382,-2.159 -1.454,-2.426 z"
             inkscape:connector-curvature="0" />
          <path
             id="path1834"
             d="m 38.485,58.06 c -1.069,-0.267 -2.157,0.384 -2.426,1.455 l -3,12 c -0.268,1.072 0.384,2.158 1.455,2.426 0.163,0.041 0.326,0.06 0.487,0.06 0.895,0 1.711,-0.606 1.938,-1.515 l 3,-12 c 0.269,-1.073 -0.382,-2.159 -1.454,-2.426 z"
             inkscape:connector-curvature="0" />
        </g>
      </g>
    </g>
  </g>
</svg>
