<?xml version="1.0" encoding="UTF-8" standalone="no"?>
<!-- Created with Inkscape (http://www.inkscape.org/) -->

<svg
   xmlns:dc="http://purl.org/dc/elements/1.1/"
   xmlns:cc="http://creativecommons.org/ns#"
   xmlns:rdf="http://www.w3.org/1999/02/22-rdf-syntax-ns#"
   xmlns:svg="http://www.w3.org/2000/svg"
   xmlns="http://www.w3.org/2000/svg"
   xmlns:sodipodi="http://sodipodi.sourceforge.net/DTD/sodipodi-0.dtd"
   xmlns:inkscape="http://www.inkscape.org/namespaces/inkscape"
   width="100"
   height="100"
   viewBox="0 0 26.458333 26.458334"
   version="1.1"
   id="svg10644"
   inkscape:version="0.92.3 (2405546, 2018-03-11)"
   sodipodi:docname="13d.svg">
  <defs
     id="defs10638" />
  <sodipodi:namedview
     id="base"
     pagecolor="#ffffff"
     bordercolor="#666666"
     borderopacity="1.0"
     inkscape:pageopacity="0.0"
     inkscape:pageshadow="2"
     inkscape:zoom="4"
     inkscape:cx="53.186885"
     inkscape:cy="70.808438"
     inkscape:document-units="mm"
     inkscape:current-layer="layer1"
     showgrid="false"
     units="px"
     inkscape:window-width="2560"
     inkscape:window-height="1017"
     inkscape:window-x="1912"
     inkscape:window-y="104"
     inkscape:window-maximized="1" />
  <metadata
     id="metadata10641">
    <rdf:RDF>
      <cc:Work
         rdf:about="">
        <dc:format>image/svg+xml</dc:format>
        <dc:type
           rdf:resource="http://purl.org/dc/dcmitype/StillImage" />
        <dc:title></dc:title>
      </cc:Work>
    </rdf:RDF>
  </metadata>
  <g
     inkscape:label="Layer 1"
     inkscape:groupmode="layer"
     id="layer1"
     transform="translate(0,-270.54165)">
    <g
       id="g1555"
       transform="matrix(0.45617816,0,0,0.45617816,-8.6670927,260.04955)">
      <g
         display="none"
         id="Base-88"
         style="display:none" />
      <g
         id="Dibujo-57">
        <g
           id="g1528">
          <path
             id="path1502"
             d="m 66,40 c -0.507,0 -1.112,0.079 -1.688,0.184 C 62.218,33.012 55.663,28 48,28 40.337,28 33.782,33.012 31.689,40.184 31.112,40.079 30.507,40 30,40 c -6.065,0 -11,4.935 -11,11 0,6.065 4.935,11 11,11 1.104,0 2,-0.896 2,-2 0,-1.104 -0.896,-2 -2,-2 -3.86,0 -7,-3.141 -7,-7 0,-3.859 3.14,-7 7,-7 0.277,0 0.723,0.068 1.193,0.162 V 46 c 0,1.104 0.896,2 2,2 1.104,0 2,-0.896 2,-2 V 42.779 C 36.268,36.527 41.631,32 48,32 c 6.369,0 11.732,4.527 12.807,10.779 V 46 c 0,1.104 0.896,2 2,2 1.104,0 2,-0.896 2,-2 V 44.162 C 65.277,44.068 65.723,44 66,44 c 3.859,0 7,3.141 7,7 0,3.859 -3.141,7 -7,7 -1.104,0 -2,0.896 -2,2 0,1.104 0.896,2 2,2 6.065,0 11,-4.935 11,-11 0,-6.065 -4.935,-11 -11,-11 z"
             inkscape:connector-curvature="0" />
          <path
             id="path1504"
             d="M 45.732,62.464 C 45.181,61.508 43.957,61.18 43,61.731 c -0.957,0.553 -1.284,1.775 -0.732,2.732 l 1,1.732 c 0.37,0.642 1.042,1 1.734,1 0.339,0 0.683,-0.086 0.998,-0.268 0.957,-0.553 1.284,-1.775 0.732,-2.732 z"
             inkscape:connector-curvature="0" />
          <path
             id="path1506"
             d="M 40.732,53.804 C 40.18,52.848 38.956,52.52 38,53.071 c -0.957,0.553 -1.284,1.775 -0.732,2.732 l 1,1.732 c 0.37,0.642 1.042,1 1.734,1 0.339,0 0.683,-0.086 0.998,-0.267 0.957,-0.553 1.284,-1.775 0.732,-2.733 z"
             inkscape:connector-curvature="0" />
          <path
             id="path1508"
             d="m 43,58.269 c 0.315,0.182 0.659,0.267 0.998,0.267 0.691,0 1.364,-0.358 1.734,-1 l 1,-1.732 C 47.284,54.847 46.957,53.624 46,53.072 45.043,52.52 43.819,52.848 43.268,53.804 l -1,1.732 c -0.552,0.957 -0.225,2.18 0.732,2.733 z"
             inkscape:connector-curvature="0" />
          <path
             id="path1510"
             d="m 41,61.731 c -0.957,-0.552 -2.18,-0.224 -2.732,0.733 l -1,1.732 c -0.552,0.957 -0.225,2.18 0.732,2.732 0.315,0.182 0.659,0.268 0.998,0.268 0.691,0 1.364,-0.358 1.734,-1 l 1,-1.732 C 42.284,63.507 41.957,62.284 41,61.731 Z"
             inkscape:connector-curvature="0" />
          <path
             id="path1512"
             d="m 40,60 c 0,-1.104 -0.896,-2 -2,-2 h -2 c -1.104,0 -2,0.896 -2,2 0,1.104 0.896,2 2,2 h 2 c 1.104,0 2,-0.896 2,-2 z"
             inkscape:connector-curvature="0" />
          <path
             id="path1514"
             d="m 50,60 c 0,-1.104 -0.896,-2 -2,-2 h -2 c -1.104,0 -2,0.896 -2,2 0,1.104 0.896,2 2,2 h 2 c 1.104,0 2,-0.896 2,-2 z"
             inkscape:connector-curvature="0" />
          <path
             id="path1516"
             d="M 60.732,71.268 C 60.181,70.312 58.956,69.984 58,70.536 c -0.957,0.553 -1.284,1.775 -0.732,2.732 l 1,1.732 c 0.37,0.642 1.042,1 1.734,1 0.339,0 0.683,-0.086 0.998,-0.268 0.957,-0.553 1.284,-1.775 0.732,-2.732 z"
             inkscape:connector-curvature="0" />
          <path
             id="path1518"
             d="M 55.732,62.607 C 55.18,61.651 53.957,61.323 53,61.875 c -0.957,0.553 -1.284,1.775 -0.732,2.732 l 1,1.732 c 0.37,0.642 1.042,1 1.734,1 0.339,0 0.683,-0.086 0.998,-0.267 0.957,-0.553 1.284,-1.775 0.732,-2.733 z"
             inkscape:connector-curvature="0" />
          <path
             id="path1520"
             d="m 58,67.072 c 0.315,0.182 0.659,0.267 0.998,0.267 0.691,0 1.364,-0.358 1.734,-1 l 1,-1.732 C 62.284,63.65 61.957,62.427 61,61.875 60.043,61.323 58.82,61.651 58.268,62.607 l -1,1.732 C 56.716,65.297 57.043,66.52 58,67.072 Z"
             inkscape:connector-curvature="0" />
          <path
             id="path1522"
             d="m 56,70.535 c -0.957,-0.552 -2.18,-0.224 -2.732,0.732 l -1,1.732 c -0.552,0.957 -0.225,2.18 0.732,2.732 0.315,0.183 0.659,0.269 0.998,0.269 0.691,0 1.364,-0.358 1.734,-1 l 1,-1.732 C 57.284,72.311 56.957,71.088 56,70.535 Z"
             inkscape:connector-curvature="0" />
          <path
             id="path1524"
             d="m 55,68.804 c 0,-1.104 -0.896,-2 -2,-2 h -2 c -1.104,0 -2,0.896 -2,2 0,1.104 0.896,2 2,2 h 2 c 1.104,0 2,-0.896 2,-2 z"
             inkscape:connector-curvature="0" />
          <path
             id="path1526"
             d="m 63,66.804 h -2 c -1.104,0 -2,0.896 -2,2 0,1.104 0.896,2 2,2 h 2 c 1.104,0 2,-0.896 2,-2 0,-1.104 -0.896,-2 -2,-2 z"
             inkscape:connector-curvature="0" />
        </g>
      </g>
    </g>
  </g>
</svg>
