<?xml version="1.0" encoding="UTF-8" standalone="no"?>
<!-- Created with Inkscape (http://www.inkscape.org/) -->

<svg
   xmlns:dc="http://purl.org/dc/elements/1.1/"
   xmlns:cc="http://creativecommons.org/ns#"
   xmlns:rdf="http://www.w3.org/1999/02/22-rdf-syntax-ns#"
   xmlns:svg="http://www.w3.org/2000/svg"
   xmlns="http://www.w3.org/2000/svg"
   xmlns:sodipodi="http://sodipodi.sourceforge.net/DTD/sodipodi-0.dtd"
   xmlns:inkscape="http://www.inkscape.org/namespaces/inkscape"
   width="100"
   height="100"
   viewBox="0 0 26.458333 26.458334"
   version="1.1"
   id="svg11258"
   inkscape:version="0.92.3 (2405546, 2018-03-11)"
   sodipodi:docname="13n.svg">
  <defs
     id="defs11252" />
  <sodipodi:namedview
     id="base"
     pagecolor="#ffffff"
     bordercolor="#666666"
     borderopacity="1.0"
     inkscape:pageopacity="0.0"
     inkscape:pageshadow="2"
     inkscape:zoom="2.8"
     inkscape:cx="133.69663"
     inkscape:cy="81.159746"
     inkscape:document-units="mm"
     inkscape:current-layer="layer1"
     showgrid="false"
     units="px"
     inkscape:window-width="2560"
     inkscape:window-height="1017"
     inkscape:window-x="1912"
     inkscape:window-y="104"
     inkscape:window-maximized="1" />
  <metadata
     id="metadata11255">
    <rdf:RDF>
      <cc:Work
         rdf:about="">
        <dc:format>image/svg+xml</dc:format>
        <dc:type
           rdf:resource="http://purl.org/dc/dcmitype/StillImage" />
        <dc:title></dc:title>
      </cc:Work>
    </rdf:RDF>
  </metadata>
  <g
     inkscape:label="Layer 1"
     inkscape:groupmode="layer"
     id="layer1"
     transform="translate(0,-270.54165)">
    <g
       id="g1679"
       transform="matrix(0.44254712,0,0,0.44254712,-8.0130951,263.47331)">
      <g
         display="none"
         id="Base-48"
         style="display:none" />
      <g
         id="Dibujo-156">
        <g
           id="g1652">
          <path
             id="path1626"
             d="M 69.24,40.488 C 72.173,37.886 74,34.094 74,30 74,28.896 73.104,28 72,28 66.486,28 62,23.514 62,18 62,16.896 61.104,16 60,16 52.922,16 47.069,21.284 46.143,28.111 39.295,28.848 33.61,33.599 31.689,40.183 31.112,40.079 30.507,40 30,40 c -6.065,0 -11,4.935 -11,11 0,6.065 4.935,11 11,11 1.104,0 2,-0.896 2,-2 0,-1.104 -0.896,-2 -2,-2 -3.859,0 -7,-3.141 -7,-7 0,-3.859 3.141,-7 7,-7 0.277,0 0.723,0.068 1.193,0.162 V 46 c 0,1.104 0.895,2 2,2 1.105,0 2,-0.896 2,-2 V 42.781 C 36.266,36.528 41.629,32 48,32 c 6.37,0 11.733,4.528 12.807,10.782 V 46 c 0,1.104 0.896,2 2,2 1.104,0 2,-0.896 2,-2 V 44.162 C 65.277,44.068 65.723,44 66,44 c 3.859,0 7,3.141 7,7 0,3.859 -3.141,7 -7,7 -1.105,0 -2,0.896 -2,2 0,1.104 0.895,2 2,2 6.065,0 11,-4.935 11,-11 0,-4.938 -3.272,-9.125 -7.76,-10.512 z M 50.174,28.15 c 0.759,-4.039 3.952,-7.23 7.994,-7.982 0.934,5.985 5.675,10.728 11.66,11.664 -0.615,3.246 -2.84,6.006 -5.862,7.326 C 61.811,33.21 56.519,28.952 50.174,28.15 Z"
             inkscape:connector-curvature="0" />
          <path
             id="path1628"
             d="M 45.732,62.464 C 45.178,61.508 43.959,61.178 43,61.731 c -0.956,0.553 -1.284,1.775 -0.732,2.732 l 1,1.732 c 0.371,0.642 1.043,1 1.734,1 0.339,0 0.683,-0.086 0.998,-0.268 0.956,-0.553 1.284,-1.775 0.732,-2.732 z"
             inkscape:connector-curvature="0" />
          <path
             id="path1630"
             d="M 40.732,53.804 C 40.178,52.847 38.959,52.519 38,53.072 c -0.956,0.553 -1.284,1.775 -0.732,2.732 l 1,1.732 c 0.371,0.642 1.043,1 1.734,1 0.339,0 0.683,-0.086 0.998,-0.267 0.956,-0.553 1.284,-1.775 0.732,-2.733 z"
             inkscape:connector-curvature="0" />
          <path
             id="path1632"
             d="m 43,58.269 c 0.315,0.182 0.659,0.267 0.998,0.267 0.691,0 1.363,-0.358 1.734,-1 l 1,-1.732 c 0.552,-0.957 0.224,-2.18 -0.732,-2.732 -0.959,-0.553 -2.18,-0.225 -2.732,0.732 l -1,1.732 c -0.552,0.957 -0.224,2.18 0.732,2.733 z"
             inkscape:connector-curvature="0" />
          <path
             id="path1634"
             d="m 41,61.731 c -0.959,-0.554 -2.18,-0.224 -2.732,0.733 l -1,1.732 c -0.552,0.957 -0.224,2.18 0.732,2.732 0.315,0.182 0.659,0.268 0.998,0.268 0.691,0 1.363,-0.358 1.734,-1 l 1,-1.732 C 42.284,63.507 41.956,62.284 41,61.731 Z"
             inkscape:connector-curvature="0" />
          <path
             id="path1636"
             d="m 40,60 c 0,-1.104 -0.896,-2 -2,-2 h -2 c -1.105,0 -2,0.896 -2,2 0,1.104 0.895,2 2,2 h 2 c 1.104,0 2,-0.896 2,-2 z"
             inkscape:connector-curvature="0" />
          <path
             id="path1638"
             d="m 50,60 c 0,-1.104 -0.896,-2 -2,-2 h -2 c -1.105,0 -2,0.896 -2,2 0,1.104 0.895,2 2,2 h 2 c 1.104,0 2,-0.896 2,-2 z"
             inkscape:connector-curvature="0" />
          <path
             id="path1640"
             d="M 60.732,71.268 C 60.178,70.312 58.958,69.983 58,70.536 c -0.956,0.553 -1.284,1.775 -0.732,2.732 l 1,1.732 c 0.371,0.642 1.043,1 1.734,1 0.339,0 0.683,-0.086 0.998,-0.268 0.956,-0.553 1.284,-1.775 0.732,-2.732 z"
             inkscape:connector-curvature="0" />
          <path
             id="path1642"
             d="M 55.732,62.607 C 55.178,61.651 53.958,61.321 53,61.875 c -0.956,0.553 -1.284,1.775 -0.732,2.732 l 1,1.732 c 0.371,0.642 1.043,1 1.734,1 0.339,0 0.683,-0.086 0.998,-0.267 0.956,-0.553 1.284,-1.775 0.732,-2.733 z"
             inkscape:connector-curvature="0" />
          <path
             id="path1644"
             d="m 58,67.072 c 0.315,0.182 0.659,0.267 0.998,0.267 0.691,0 1.363,-0.358 1.734,-1 l 1,-1.732 C 62.284,63.65 61.956,62.427 61,61.875 60.041,61.321 58.82,61.651 58.268,62.607 l -1,1.732 C 56.716,65.297 57.044,66.52 58,67.072 Z"
             inkscape:connector-curvature="0" />
          <path
             id="path1646"
             d="m 56,70.535 c -0.959,-0.553 -2.18,-0.224 -2.732,0.732 l -1,1.732 c -0.552,0.957 -0.224,2.18 0.732,2.732 0.315,0.183 0.659,0.269 0.998,0.269 0.691,0 1.363,-0.358 1.734,-1 l 1,-1.732 C 57.284,72.311 56.956,71.088 56,70.535 Z"
             inkscape:connector-curvature="0" />
          <path
             id="path1648"
             d="m 55,68.804 c 0,-1.104 -0.896,-2 -2,-2 h -2 c -1.105,0 -2,0.896 -2,2 0,1.104 0.895,2 2,2 h 2 c 1.104,0 2,-0.896 2,-2 z"
             inkscape:connector-curvature="0" />
          <path
             id="path1650"
             d="m 63,66.804 h -2 c -1.105,0 -2,0.896 -2,2 0,1.104 0.895,2 2,2 h 2 c 1.104,0 2,-0.896 2,-2 0,-1.104 -0.896,-2 -2,-2 z"
             inkscape:connector-curvature="0" />
        </g>
      </g>
    </g>
  </g>
</svg>
